<svg width="1000" height="1000" viewBox="0 0 1000 1000" fill="none" xmlns="http://www.w3.org/2000/svg">
<rect width="1000" height="1000" fill="#2A1F0E"/>
<rect x="0.5" y="-0.5" width="899" height="249" rx="95.5" transform="matrix(1 0 0 -1 50 624)" fill="#FAF7F2" stroke="#FAF7F2"/>
<path d="M518.612 493.682C517.353 490.942 515.344 488.258 514.588 487.248C514.493 487.122 514.424 487.031 514.386 486.977C514.367 486.948 514.336 486.905 514.295 486.849C513.197 485.331 511.354 482.131 511.354 477.745C511.354 472.044 510.91 461.444 510.192 454.261C509.892 451.241 509.599 448.238 509.363 445.826C509.137 443.503 509.008 442.185 508.927 441.416C509.416 440.772 509.806 440.106 509.806 439.31C509.806 438.924 509.704 438.352 509.129 435.49C509.074 435.221 509.014 434.923 508.956 434.629C509.194 434.453 509.392 434.223 509.53 433.956C509.98 433.085 510.004 429.834 509.237 428.171C508.338 426.215 506.332 425 504.002 425H495.026C492.694 425 490.687 426.216 489.79 428.171C489.021 429.842 489.05 433.094 489.504 433.962C489.641 434.226 489.838 434.453 490.073 434.628C490.015 434.916 489.957 435.207 489.904 435.471C489.323 438.348 489.221 438.923 489.221 439.311C489.221 440.111 489.611 440.777 490.103 441.42C490.028 442.136 489.911 443.327 489.713 445.362C489.471 447.847 489.158 451.044 488.838 454.261C488.12 461.475 487.676 472.068 487.676 477.746C487.676 482.133 485.835 485.333 484.737 486.85C484.696 486.907 484.666 486.949 484.644 486.98C484.608 487.031 484.539 487.123 484.444 487.25C483.688 488.259 481.68 490.943 480.419 493.682C478.935 496.907 479.115 501.364 479.148 501.985C479.153 503.959 479.276 556.411 479.277 559.584C479.093 567.212 480.127 571.028 482.842 572.739C486.058 574.837 496.411 575 499.514 575C502.618 575 512.973 574.837 516.187 572.738C518.903 571.026 519.936 567.211 519.749 559.584C519.75 556.267 519.876 503.966 519.88 501.986C519.914 501.363 520.096 496.904 518.612 493.682Z" fill="#D4600A"/>
<path d="M568.811 507.235C567.762 504.952 566.088 502.715 565.458 501.874C565.379 501.768 565.322 501.692 565.29 501.647C565.274 501.623 565.249 501.588 565.214 501.541C564.299 500.276 562.763 497.609 562.763 493.955C562.763 489.203 562.393 480.37 561.795 474.384C561.545 471.868 561.301 469.365 561.104 467.355C560.915 465.419 560.808 464.321 560.741 463.68C561.149 463.143 561.473 462.589 561.473 461.925C561.473 461.603 561.389 461.127 560.909 458.741C560.863 458.517 560.814 458.269 560.765 458.024C560.963 457.877 561.128 457.686 561.243 457.463C561.618 456.738 561.639 454.028 560.999 452.642C560.25 451.013 558.578 450 556.636 450H549.157C547.214 450 545.541 451.013 544.793 452.642C544.152 454.035 544.177 456.745 544.555 457.469C544.669 457.688 544.833 457.878 545.029 458.024C544.981 458.264 544.932 458.506 544.888 458.726C544.404 461.124 544.319 461.602 544.319 461.926C544.319 462.593 544.644 463.147 545.054 463.684C544.992 464.28 544.895 465.272 544.729 466.968C544.527 469.039 544.267 471.704 544 474.384C543.402 480.395 543.032 489.223 543.032 493.955C543.032 497.611 541.497 500.277 540.582 501.542C540.548 501.589 540.523 501.624 540.505 501.65C540.475 501.693 540.418 501.769 540.339 501.875C539.709 502.716 538.035 504.952 536.984 507.235C535.748 509.922 535.898 513.637 535.925 514.154C535.929 515.799 536.032 559.509 536.032 562.154C535.879 568.51 536.741 571.69 539.003 573.116C541.683 574.864 550.311 575 552.897 575C555.483 575 564.112 574.864 566.791 573.115C569.054 571.688 569.915 568.509 569.759 562.153C569.76 559.389 569.865 515.805 569.869 514.155C569.896 513.636 570.048 509.92 568.811 507.235Z" fill="#2A1F0E"/>
<path d="M741.561 507.235C740.511 504.952 738.837 502.715 738.207 501.874C738.129 501.768 738.071 501.692 738.04 501.647C738.023 501.623 737.998 501.588 737.964 501.541C737.048 500.276 735.512 497.609 735.512 493.955C735.512 489.203 735.142 480.37 734.544 474.384C734.294 471.868 734.05 469.365 733.854 467.355C733.665 465.419 733.557 464.321 733.49 463.68C733.898 463.143 734.222 462.589 734.222 461.925C734.222 461.603 734.138 461.127 733.658 458.741C733.613 458.517 733.563 458.269 733.514 458.024C733.712 457.877 733.878 457.686 733.993 457.463C734.368 456.738 734.388 454.028 733.748 452.642C732.999 451.013 731.327 450 729.386 450H721.906C719.963 450 718.29 451.013 717.542 452.642C716.902 454.035 716.926 456.745 717.304 457.469C717.419 457.688 717.582 457.878 717.778 458.024C717.73 458.264 717.682 458.506 717.637 458.726C717.154 461.124 717.069 461.602 717.069 461.926C717.069 462.593 717.394 463.147 717.803 463.684C717.741 464.28 717.644 465.272 717.478 466.968C717.276 469.039 717.016 471.704 716.749 474.384C716.151 480.395 715.781 489.223 715.781 493.955C715.781 497.611 714.246 500.277 713.332 501.542C713.298 501.589 713.272 501.624 713.254 501.65C713.224 501.693 713.167 501.769 713.088 501.875C712.458 502.716 710.784 504.952 709.733 507.235C708.497 509.922 708.647 513.637 708.674 514.154C708.678 515.799 708.781 559.509 708.782 562.154C708.628 568.51 709.49 571.69 711.753 573.116C714.432 574.864 723.06 575 725.646 575C728.232 575 736.862 574.864 739.54 573.115C741.803 571.688 742.664 568.509 742.509 562.153C742.509 559.389 742.614 515.805 742.618 514.155C742.646 513.636 742.797 509.92 741.561 507.235Z" fill="#2A1F0E"/>
<path d="M778.382 534.341C777.753 532.971 776.748 531.629 776.37 531.124C776.323 531.061 776.289 531.015 776.27 530.988C776.26 530.974 776.245 530.953 776.224 530.924C775.675 530.166 774.753 528.565 774.753 526.373C774.753 523.522 774.531 518.222 774.173 514.63C774.022 513.121 773.876 511.619 773.758 510.413C773.645 509.251 773.581 508.593 773.54 508.208C773.785 507.886 773.979 507.553 773.979 507.155C773.979 506.962 773.929 506.676 773.641 505.245C773.614 505.11 773.584 504.962 773.555 504.815C773.673 504.726 773.773 504.611 773.842 504.478C774.067 504.043 774.079 502.417 773.695 501.585C773.246 500.608 772.243 500 771.077 500H766.59C765.424 500 764.42 500.608 763.971 501.585C763.587 502.421 763.602 504.047 763.828 504.481C763.897 504.613 763.996 504.727 764.113 504.814C764.084 504.958 764.055 505.103 764.029 505.235C763.738 506.674 763.687 506.961 763.687 507.156C763.687 507.556 763.882 507.888 764.128 508.21C764.091 508.568 764.032 509.163 763.933 510.181C763.812 511.423 763.656 513.022 763.495 514.631C763.137 518.237 762.915 523.534 762.915 526.373C762.915 528.566 761.994 530.166 761.445 530.925C761.425 530.953 761.409 530.975 761.399 530.99C761.381 531.016 761.346 531.061 761.299 531.125C760.921 531.63 759.917 532.971 759.286 534.341C758.544 535.953 758.634 538.182 758.651 538.493C758.653 539.479 758.715 565.706 758.715 567.292C758.623 571.106 759.14 573.014 760.498 573.869C762.106 574.918 767.282 575 768.834 575C770.386 575 775.563 574.918 777.17 573.869C778.528 573.013 779.045 571.105 778.951 567.292C778.952 565.634 779.014 539.483 779.017 538.493C779.034 538.181 779.124 535.952 778.382 534.341Z" fill="#2A1F0E"/>
<path d="M857.744 534.341C857.114 532.971 856.11 531.629 855.732 531.124C855.685 531.061 855.65 531.015 855.631 530.988C855.621 530.974 855.606 530.953 855.586 530.924C855.036 530.166 854.115 528.565 854.115 526.373C854.115 523.522 853.893 518.222 853.534 514.63C853.384 513.121 853.237 511.619 853.12 510.413C853.006 509.251 852.942 508.593 852.901 508.208C853.146 507.886 853.341 507.553 853.341 507.155C853.341 506.962 853.29 506.676 853.002 505.245C852.975 505.11 852.945 504.962 852.916 504.815C853.035 504.726 853.134 504.611 853.203 504.478C853.428 504.043 853.44 502.417 853.056 501.585C852.607 500.608 851.604 500 850.439 500H845.951C844.785 500 843.782 500.608 843.333 501.585C842.948 502.421 842.963 504.047 843.19 504.481C843.259 504.613 843.357 504.727 843.474 504.814C843.446 504.958 843.416 505.103 843.39 505.235C843.1 506.674 843.049 506.961 843.049 507.156C843.049 507.556 843.244 507.888 843.489 508.21C843.452 508.568 843.394 509.163 843.294 510.181C843.173 511.423 843.017 513.022 842.857 514.631C842.498 518.237 842.276 523.534 842.276 526.373C842.276 528.566 841.355 530.166 840.806 530.925C840.786 530.953 840.771 530.975 840.76 530.99C840.742 531.016 840.708 531.061 840.66 531.125C840.282 531.63 839.278 532.971 838.648 534.341C837.905 535.953 837.996 538.182 838.012 538.493C838.014 539.479 838.076 565.706 838.076 567.292C837.984 571.106 838.501 573.014 839.859 573.869C841.467 574.918 846.644 575 848.195 575C849.747 575 854.924 574.918 856.532 573.869C857.889 573.013 858.406 571.105 858.313 567.292C858.313 565.634 858.376 539.483 858.378 538.493C858.395 538.181 858.486 535.952 857.744 534.341Z" fill="#2A1F0E"/>
<path d="M289.297 507.235C288.248 504.952 286.574 502.715 285.944 501.874C285.865 501.768 285.807 501.692 285.776 501.647C285.76 501.623 285.734 501.588 285.7 501.541C284.785 500.276 283.249 497.609 283.249 493.955C283.249 489.203 282.879 480.37 282.28 474.384C282.03 471.868 281.786 469.365 281.59 467.355C281.401 465.419 281.294 464.321 281.226 463.68C281.634 463.143 281.959 462.589 281.959 461.925C281.959 461.603 281.874 461.127 281.394 458.741C281.349 458.517 281.299 458.269 281.25 458.024C281.449 457.877 281.614 457.686 281.729 457.463C282.104 456.738 282.124 454.028 281.485 452.642C280.736 451.013 279.064 450 277.122 450H269.642C267.699 450 266.027 451.013 265.279 452.642C264.638 454.035 264.663 456.745 265.04 457.469C265.155 457.688 265.319 457.878 265.515 458.024C265.467 458.264 265.418 458.506 265.374 458.726C264.89 461.124 264.805 461.602 264.805 461.926C264.805 462.593 265.13 463.147 265.539 463.684C265.477 464.28 265.38 465.272 265.215 466.968C265.013 469.039 264.753 471.704 264.485 474.384C263.887 480.395 263.518 489.223 263.518 493.955C263.518 497.611 261.983 500.277 261.068 501.542C261.034 501.589 261.009 501.624 260.991 501.65C260.961 501.693 260.903 501.769 260.824 501.875C260.194 502.716 258.521 504.952 257.47 507.235C256.233 509.922 256.383 513.637 256.411 514.154C256.415 515.799 256.517 559.509 256.518 562.154C256.365 568.51 257.226 571.69 259.489 573.116C262.169 574.864 270.797 575 273.382 575C275.969 575 284.598 574.864 287.277 573.115C289.54 571.688 290.4 568.509 290.245 562.153C290.245 559.389 290.35 515.805 290.354 514.155C290.382 513.636 290.534 509.92 289.297 507.235Z" fill="#2A1F0E"/>
<path d="M239.744 534.341C239.114 532.971 238.11 531.629 237.732 531.124C237.685 531.061 237.65 531.015 237.631 530.988C237.621 530.974 237.606 530.953 237.586 530.924C237.036 530.166 236.115 528.565 236.115 526.373C236.115 523.522 235.893 518.222 235.534 514.63C235.384 513.121 235.237 511.619 235.12 510.413C235.006 509.251 234.942 508.593 234.901 508.208C235.146 507.886 235.341 507.553 235.341 507.155C235.341 506.962 235.29 506.676 235.002 505.245C234.975 505.11 234.945 504.962 234.916 504.815C235.035 504.726 235.134 504.611 235.203 504.478C235.428 504.043 235.44 502.417 235.056 501.585C234.607 500.608 233.604 500 232.439 500H227.951C226.785 500 225.782 500.608 225.333 501.585C224.948 502.421 224.963 504.047 225.19 504.481C225.259 504.613 225.357 504.727 225.474 504.814C225.446 504.958 225.416 505.103 225.39 505.235C225.1 506.674 225.049 506.961 225.049 507.156C225.049 507.556 225.244 507.888 225.489 508.21C225.452 508.568 225.394 509.163 225.294 510.181C225.173 511.423 225.017 513.022 224.857 514.631C224.498 518.237 224.276 523.534 224.276 526.373C224.276 528.566 223.355 530.166 222.806 530.925C222.786 530.953 222.771 530.975 222.76 530.99C222.742 531.016 222.708 531.061 222.66 531.125C222.282 531.63 221.278 532.971 220.648 534.341C219.905 535.953 219.996 538.182 220.012 538.493C220.014 539.479 220.076 565.706 220.076 567.292C219.984 571.106 220.501 573.014 221.859 573.869C223.467 574.918 228.644 575 230.195 575C231.747 575 236.924 574.918 238.532 573.869C239.889 573.013 240.406 571.105 240.313 567.292C240.313 565.634 240.376 539.483 240.378 538.493C240.395 538.181 240.486 535.952 239.744 534.341Z" fill="#2A1F0E"/>
<path d="M160.744 534.341C160.114 532.971 159.11 531.629 158.732 531.124C158.685 531.061 158.65 531.015 158.631 530.988C158.621 530.974 158.606 530.953 158.586 530.924C158.036 530.166 157.115 528.565 157.115 526.373C157.115 523.522 156.893 518.222 156.534 514.63C156.384 513.121 156.237 511.619 156.12 510.413C156.006 509.251 155.942 508.593 155.901 508.208C156.146 507.886 156.341 507.553 156.341 507.155C156.341 506.962 156.29 506.676 156.002 505.245C155.975 505.11 155.945 504.962 155.916 504.815C156.035 504.726 156.134 504.611 156.203 504.478C156.428 504.043 156.44 502.417 156.056 501.585C155.607 500.608 154.604 500 153.439 500H148.951C147.785 500 146.782 500.608 146.333 501.585C145.948 502.421 145.963 504.047 146.19 504.481C146.259 504.613 146.357 504.727 146.474 504.814C146.446 504.958 146.416 505.103 146.39 505.235C146.1 506.674 146.049 506.961 146.049 507.156C146.049 507.556 146.244 507.888 146.489 508.21C146.452 508.568 146.394 509.163 146.294 510.181C146.173 511.423 146.017 513.022 145.857 514.631C145.498 518.237 145.276 523.534 145.276 526.373C145.276 528.566 144.355 530.166 143.806 530.925C143.786 530.953 143.771 530.975 143.76 530.99C143.742 531.016 143.708 531.061 143.66 531.125C143.282 531.63 142.278 532.971 141.648 534.341C140.905 535.953 140.996 538.182 141.012 538.493C141.014 539.479 141.076 565.706 141.076 567.292C140.984 571.106 141.501 573.014 142.859 573.869C144.467 574.918 149.644 575 151.195 575C152.747 575 157.924 574.918 159.532 573.869C160.889 573.013 161.406 571.105 161.313 567.292C161.313 565.634 161.376 539.483 161.378 538.493C161.395 538.181 161.486 535.952 160.744 534.341Z" fill="#2A1F0E"/>
<path d="M612.214 520.788C611.375 518.961 610.036 517.172 609.532 516.499C609.469 516.414 609.423 516.354 609.397 516.318C609.384 516.299 609.364 516.27 609.337 516.232C608.604 515.221 607.376 513.087 607.376 510.164C607.376 506.363 607.079 499.296 606.601 494.507C606.401 492.494 606.206 490.492 606.049 488.884C605.898 487.335 605.812 486.457 605.758 485.944C606.084 485.515 606.343 485.071 606.343 484.54C606.343 484.282 606.276 483.902 605.892 481.993C605.856 481.814 605.816 481.616 605.777 481.419C605.935 481.302 606.068 481.148 606.16 480.971C606.46 480.39 606.476 478.223 605.964 477.114C605.365 475.81 604.028 475 602.474 475H596.491C594.936 475 593.598 475.81 592.999 477.114C592.487 478.228 592.507 480.396 592.809 480.975C592.901 481.151 593.032 481.302 593.188 481.419C593.15 481.611 593.111 481.805 593.076 481.981C592.689 483.899 592.621 484.282 592.621 484.541C592.621 485.074 592.881 485.518 593.208 485.947C593.158 486.424 593.081 487.218 592.948 488.575C592.787 490.231 592.579 492.363 592.365 494.508C591.887 499.316 591.591 506.379 591.591 510.164C591.591 513.089 590.363 515.222 589.631 516.234C589.604 516.271 589.583 516.3 589.569 516.32C589.545 516.354 589.499 516.415 589.436 516.5C588.932 517.173 587.593 518.962 586.753 520.788C585.763 522.938 585.883 525.909 585.905 526.324C585.908 527.639 585.991 562.607 585.991 564.723C585.868 569.808 586.558 572.352 588.368 573.492C590.512 574.891 597.414 575 599.483 575C601.552 575 608.455 574.891 610.598 573.492C612.408 572.35 613.097 569.807 612.973 564.723C612.973 562.511 613.057 527.644 613.06 526.324C613.082 525.909 613.204 522.936 612.214 520.788Z" fill="#2A1F0E"/>
<path d="M691.792 520.788C690.953 518.961 689.613 517.172 689.109 516.499C689.046 516.414 689.001 516.354 688.975 516.318C688.962 516.299 688.942 516.27 688.914 516.232C688.182 515.221 686.953 513.087 686.953 510.164C686.953 506.363 686.657 499.296 686.179 494.507C685.979 492.494 685.784 490.492 685.627 488.884C685.475 487.335 685.39 486.457 685.336 485.944C685.662 485.515 685.921 485.071 685.921 484.54C685.921 484.282 685.854 483.902 685.47 481.993C685.434 481.814 685.394 481.616 685.355 481.419C685.513 481.302 685.646 481.148 685.738 480.971C686.038 480.39 686.054 478.223 685.542 477.114C684.943 475.81 683.606 475 682.052 475H676.068C674.514 475 673.176 475.81 672.577 477.114C672.065 478.228 672.085 480.396 672.387 480.975C672.479 481.151 672.61 481.302 672.766 481.419C672.728 481.611 672.689 481.805 672.653 481.981C672.266 483.899 672.198 484.282 672.198 484.541C672.198 485.074 672.459 485.518 672.786 485.947C672.736 486.424 672.659 487.218 672.526 488.575C672.365 490.231 672.157 492.363 671.943 494.508C671.464 499.316 671.169 506.379 671.169 510.164C671.169 513.089 669.941 515.222 669.209 516.234C669.182 516.271 669.161 516.3 669.147 516.32C669.123 516.354 669.077 516.415 669.014 516.5C668.51 517.173 667.171 518.962 666.33 520.788C665.341 522.938 665.461 525.909 665.483 526.324C665.486 527.639 665.569 562.607 665.569 564.723C665.446 569.808 666.135 572.352 667.946 573.492C670.089 574.891 676.992 575 679.06 575C681.13 575 688.033 574.891 690.176 573.492C691.986 572.35 692.675 569.807 692.55 564.723C692.551 562.511 692.635 527.644 692.638 526.324C692.66 525.909 692.781 522.936 691.792 520.788Z" fill="#2A1F0E"/>
<path d="M821.325 520.788C820.486 518.961 819.146 517.172 818.642 516.499C818.579 516.414 818.534 516.354 818.508 516.318C818.495 516.299 818.475 516.27 818.447 516.232C817.715 515.221 816.486 513.087 816.486 510.164C816.486 506.363 816.19 499.296 815.712 494.507C815.512 492.494 815.317 490.492 815.16 488.884C815.008 487.335 814.923 486.457 814.869 485.944C815.195 485.515 815.454 485.071 815.454 484.54C815.454 484.282 815.387 483.902 815.003 481.993C814.967 481.814 814.927 481.616 814.888 481.419C815.046 481.302 815.179 481.148 815.271 480.971C815.571 480.39 815.587 478.223 815.075 477.114C814.476 475.81 813.139 475 811.585 475H805.601C804.047 475 802.709 475.81 802.11 477.114C801.598 478.228 801.618 480.396 801.92 480.975C802.012 481.151 802.142 481.302 802.299 481.419C802.261 481.611 802.222 481.805 802.186 481.981C801.799 483.899 801.731 484.282 801.731 484.541C801.731 485.074 801.992 485.518 802.319 485.947C802.269 486.424 802.192 487.218 802.059 488.575C801.898 490.231 801.69 492.363 801.476 494.508C800.997 499.316 800.702 506.379 800.702 510.164C800.702 513.089 799.474 515.222 798.742 516.234C798.715 516.271 798.694 516.3 798.68 516.32C798.656 516.354 798.61 516.415 798.547 516.5C798.043 517.173 796.704 518.962 795.863 520.788C794.874 522.938 794.994 525.909 795.016 526.324C795.019 527.639 795.101 562.607 795.102 564.723C794.979 569.808 795.668 572.352 797.479 573.492C799.622 574.891 806.525 575 808.593 575C810.663 575 817.566 574.891 819.709 573.492C821.519 572.35 822.208 569.807 822.083 564.723C822.084 562.511 822.168 527.644 822.171 526.324C822.193 525.909 822.314 522.936 821.325 520.788Z" fill="#2A1F0E"/>
<path d="M412.278 520.788C411.438 518.961 410.099 517.172 409.595 516.499C409.532 516.414 409.486 516.354 409.461 516.318C409.448 516.299 409.427 516.27 409.4 516.232C408.668 515.221 407.439 513.087 407.439 510.164C407.439 506.363 407.143 499.296 406.664 494.507C406.464 492.494 406.269 490.492 406.112 488.884C405.961 487.335 405.875 486.457 405.821 485.944C406.148 485.515 406.407 485.071 406.407 484.54C406.407 484.282 406.339 483.902 405.956 481.993C405.919 481.814 405.88 481.616 405.84 481.419C405.999 481.302 406.131 481.148 406.223 480.971C406.523 480.39 406.54 478.223 406.028 477.114C405.429 475.81 404.091 475 402.538 475H396.554C394.999 475 393.662 475.81 393.063 477.114C392.551 478.228 392.57 480.396 392.872 480.975C392.964 481.151 393.095 481.302 393.252 481.419C393.213 481.611 393.174 481.805 393.139 481.981C392.752 483.899 392.684 484.282 392.684 484.541C392.684 485.074 392.944 485.518 393.272 485.947C393.222 486.424 393.144 487.218 393.012 488.575C392.85 490.231 392.642 492.363 392.428 494.508C391.95 499.316 391.654 506.379 391.654 510.164C391.654 513.089 390.426 515.222 389.694 516.234C389.667 516.271 389.647 516.3 389.633 516.32C389.609 516.354 389.563 516.415 389.499 516.5C388.996 517.173 387.657 518.962 386.816 520.788C385.827 522.938 385.947 525.909 385.969 526.324C385.972 527.639 386.054 562.607 386.055 564.723C385.932 569.808 386.621 572.352 388.431 573.492C390.575 574.891 397.477 575 399.546 575C401.615 575 408.519 574.891 410.661 573.492C412.472 572.35 413.16 569.807 413.036 564.723C413.036 562.511 413.12 527.644 413.124 526.324C413.146 525.909 413.267 522.936 412.278 520.788Z" fill="#2A1F0E"/>
<path d="M332.7 520.788C331.86 518.961 330.521 517.172 330.017 516.499C329.954 516.414 329.908 516.354 329.883 516.318C329.87 516.299 329.849 516.27 329.822 516.232C329.09 515.221 327.861 513.087 327.861 510.164C327.861 506.363 327.565 499.296 327.086 494.507C326.886 492.494 326.691 490.492 326.534 488.884C326.383 487.335 326.297 486.457 326.243 485.944C326.569 485.515 326.829 485.071 326.829 484.54C326.829 484.282 326.761 483.902 326.378 481.993C326.341 481.814 326.301 481.616 326.262 481.419C326.421 481.302 326.553 481.148 326.645 480.971C326.945 480.39 326.961 478.223 326.45 477.114C325.85 475.81 324.513 475 322.96 475H316.976C315.421 475 314.083 475.81 313.485 477.114C312.972 478.228 312.992 480.396 313.294 480.975C313.386 481.151 313.517 481.302 313.674 481.419C313.635 481.611 313.596 481.805 313.561 481.981C313.174 483.899 313.106 484.282 313.106 484.541C313.106 485.074 313.366 485.518 313.694 485.947C313.644 486.424 313.566 487.218 313.434 488.575C313.272 490.231 313.064 492.363 312.85 494.508C312.372 499.316 312.076 506.379 312.076 510.164C312.076 513.089 310.848 515.222 310.116 516.234C310.089 516.271 310.069 516.3 310.055 516.32C310.031 516.354 309.985 516.415 309.921 516.5C309.417 517.173 308.078 518.962 307.238 520.788C306.249 522.938 306.369 525.909 306.391 526.324C306.394 527.639 306.476 562.607 306.476 564.723C306.354 569.808 307.043 572.352 308.853 573.492C310.997 574.891 317.899 575 319.968 575C322.037 575 328.94 574.891 331.083 573.492C332.894 572.35 333.582 569.807 333.458 564.723C333.458 562.511 333.542 527.644 333.545 526.324C333.568 525.909 333.689 522.936 332.7 520.788Z" fill="#2A1F0E"/>
<path d="M203.325 520.788C202.486 518.961 201.146 517.172 200.642 516.499C200.579 516.414 200.534 516.354 200.508 516.318C200.495 516.299 200.475 516.27 200.447 516.232C199.715 515.221 198.486 513.087 198.486 510.164C198.486 506.363 198.19 499.296 197.712 494.507C197.512 492.494 197.317 490.492 197.16 488.884C197.008 487.335 196.923 486.457 196.869 485.944C197.195 485.515 197.454 485.071 197.454 484.54C197.454 484.282 197.387 483.902 197.003 481.993C196.967 481.814 196.927 481.616 196.888 481.419C197.046 481.302 197.179 481.148 197.271 480.971C197.571 480.39 197.587 478.223 197.075 477.114C196.476 475.81 195.139 475 193.585 475H187.601C186.047 475 184.709 475.81 184.11 477.114C183.598 478.228 183.618 480.396 183.92 480.975C184.012 481.151 184.142 481.302 184.299 481.419C184.261 481.611 184.222 481.805 184.186 481.981C183.799 483.899 183.731 484.282 183.731 484.541C183.731 485.074 183.992 485.518 184.319 485.947C184.269 486.424 184.192 487.218 184.059 488.575C183.898 490.231 183.69 492.363 183.476 494.508C182.997 499.316 182.702 506.379 182.702 510.164C182.702 513.089 181.474 515.222 180.742 516.234C180.715 516.271 180.694 516.3 180.68 516.32C180.656 516.354 180.61 516.415 180.547 516.5C180.043 517.173 178.704 518.962 177.863 520.788C176.874 522.938 176.994 525.909 177.016 526.324C177.019 527.639 177.101 562.607 177.102 564.723C176.979 569.808 177.668 572.352 179.479 573.492C181.622 574.891 188.525 575 190.593 575C192.663 575 199.566 574.891 201.709 573.492C203.519 572.35 204.208 569.807 204.083 564.723C204.084 562.511 204.168 527.644 204.171 526.324C204.193 525.909 204.314 522.936 203.325 520.788Z" fill="#2A1F0E"/>
<path d="M369.306 534.341C368.676 532.971 367.672 531.629 367.294 531.124C367.247 531.061 367.212 531.015 367.193 530.988C367.183 530.974 367.168 530.953 367.148 530.924C366.598 530.166 365.677 528.565 365.677 526.373C365.677 523.522 365.455 518.222 365.096 514.63C364.946 513.121 364.799 511.619 364.682 510.413C364.568 509.251 364.504 508.593 364.463 508.208C364.708 507.886 364.903 507.553 364.903 507.155C364.903 506.962 364.852 506.676 364.564 505.245C364.537 505.11 364.507 504.962 364.478 504.815C364.597 504.726 364.696 504.611 364.765 504.478C364.99 504.043 365.002 502.417 364.618 501.585C364.169 500.608 363.166 500 362.001 500H357.513C356.347 500 355.344 500.608 354.895 501.585C354.51 502.421 354.525 504.047 354.752 504.481C354.821 504.613 354.919 504.727 355.036 504.814C355.008 504.958 354.978 505.103 354.952 505.235C354.662 506.674 354.611 506.961 354.611 507.156C354.611 507.556 354.806 507.888 355.051 508.21C355.014 508.568 354.956 509.163 354.856 510.181C354.735 511.423 354.579 513.022 354.419 514.631C354.06 518.237 353.838 523.534 353.838 526.373C353.838 528.566 352.917 530.166 352.368 530.925C352.348 530.953 352.333 530.975 352.322 530.99C352.304 531.016 352.27 531.061 352.222 531.125C351.844 531.63 350.84 532.971 350.21 534.341C349.468 535.953 349.558 538.182 349.574 538.493C349.577 539.479 349.638 565.706 349.638 567.292C349.546 571.106 350.063 573.014 351.421 573.869C353.029 574.918 358.206 575 359.757 575C361.309 575 366.486 574.918 368.094 573.869C369.451 573.013 369.968 571.105 369.875 567.292C369.875 565.634 369.938 539.483 369.94 538.493C369.957 538.181 370.048 535.952 369.306 534.341Z" fill="#2A1F0E"/>
<path d="M648.82 534.341C648.191 532.971 647.186 531.629 646.808 531.124C646.761 531.061 646.727 531.015 646.708 530.988C646.698 530.974 646.683 530.953 646.662 530.924C646.113 530.166 645.191 528.565 645.191 526.373C645.191 523.522 644.969 518.222 644.611 514.63C644.46 513.121 644.314 511.619 644.196 510.413C644.083 509.251 644.019 508.593 643.978 508.208C644.223 507.886 644.417 507.553 644.417 507.155C644.417 506.962 644.367 506.676 644.079 505.245C644.052 505.11 644.022 504.962 643.993 504.815C644.111 504.726 644.211 504.611 644.28 504.478C644.505 504.043 644.517 502.417 644.133 501.585C643.684 500.608 642.681 500 641.515 500H637.028C635.862 500 634.858 500.608 634.409 501.585C634.025 502.421 634.04 504.047 634.266 504.481C634.335 504.613 634.434 504.727 634.551 504.814C634.522 504.958 634.493 505.103 634.466 505.235C634.176 506.674 634.125 506.961 634.125 507.156C634.125 507.556 634.32 507.888 634.566 508.21C634.529 508.568 634.47 509.163 634.371 510.181C634.25 511.423 634.094 513.022 633.933 514.631C633.575 518.237 633.353 523.534 633.353 526.373C633.353 528.566 632.432 530.166 631.883 530.925C631.863 530.953 631.847 530.975 631.837 530.99C631.819 531.016 631.784 531.061 631.737 531.125C631.359 531.63 630.355 532.971 629.724 534.341C628.982 535.953 629.072 538.182 629.089 538.493C629.091 539.479 629.153 565.706 629.153 567.292C629.061 571.106 629.578 573.014 630.936 573.869C632.544 574.918 637.72 575 639.272 575C640.824 575 646.001 574.918 647.608 573.869C648.966 573.013 649.483 571.105 649.389 567.292C649.39 565.634 649.452 539.483 649.455 538.493C649.472 538.181 649.562 535.952 648.82 534.341Z" fill="#2A1F0E"/>
<path d="M462.046 507.235C460.997 504.952 459.323 502.715 458.693 501.874C458.614 501.768 458.557 501.692 458.525 501.647C458.509 501.623 458.483 501.588 458.449 501.541C457.534 500.276 455.998 497.609 455.998 493.955C455.998 489.203 455.628 480.37 455.03 474.384C454.78 471.868 454.536 469.365 454.339 467.355C454.15 465.419 454.043 464.321 453.976 463.68C454.384 463.143 454.708 462.589 454.708 461.925C454.708 461.603 454.623 461.127 454.144 458.741C454.098 458.517 454.048 458.269 454 458.024C454.198 457.877 454.363 457.686 454.478 457.463C454.853 456.738 454.874 454.028 454.234 452.642C453.485 451.013 451.813 450 449.871 450H442.392C440.448 450 438.776 451.013 438.028 452.642C437.387 454.035 437.412 456.745 437.79 457.469C437.904 457.688 438.068 457.878 438.264 458.024C438.216 458.264 438.167 458.506 438.123 458.726C437.639 461.124 437.554 461.602 437.554 461.926C437.554 462.593 437.879 463.147 438.289 463.684C438.226 464.28 438.129 465.272 437.964 466.968C437.762 469.039 437.502 471.704 437.235 474.384C436.637 480.395 436.267 489.223 436.267 493.955C436.267 497.611 434.732 500.277 433.817 501.542C433.783 501.589 433.758 501.624 433.74 501.65C433.71 501.693 433.652 501.769 433.573 501.875C432.943 502.716 431.27 504.952 430.219 507.235C428.982 509.922 429.133 513.637 429.16 514.154C429.164 515.799 429.267 559.509 429.267 562.154C429.114 568.51 429.975 571.69 432.238 573.116C434.918 574.864 443.546 575 446.132 575C448.718 575 457.347 574.864 460.026 573.115C462.289 571.688 463.15 568.509 462.994 562.153C462.995 559.389 463.1 515.805 463.104 514.155C463.131 513.636 463.283 509.92 462.046 507.235Z" fill="#2A1F0E"/>
</svg>
